# xmcd
#
# Track frame offsets:
#	150
#	18154
#	28803
#	43546
#	60449
#	74033
#	86483
#	100141
#	112454
#	130413
#	145999
#	162564
#	179586
#	192677
#	210562
#	227604
#
# Disc length: 3362 seconds
#
# Revision: 0
# Processed by: cddbd v1.5.2PL0 Copyright (c) Steve Scherf et al.
# Submitted via: EasyCDDAExtractor 16.0.6.1
#
DISCID=f20d2010
DTITLE=VICTOR and LEO - O CANTOR DO SERTÃO
DYEAR=2018
DGENRE=Country
TTITLE0=VICTOR and LEO - O CANTOR DO SERTÃO
TTITLE1=VICTOR and LEO - RIOS DE AMOR
TTITLE2=VICTOR and LEO FEAT RIONEGRO and SOLIMÕES - NÓS DOIS NA MADRUGADA com Rion
TTITLE2=egro and Solimões
TTITLE3=VICTOR and LEO - FAZENDA PARAÍSO
TTITLE4=VICTOR and LEO - A FELICIDADE E SEU ESPELHO
TTITLE5=VICTOR and LEO - SEM VOCÊ
TTITLE6=VICTOR and LEO FEAT CHITÃOZINHO and XORORÓ - SOLIDÃO A DOIS com Chitãozinh
TTITLE6=o and Xororó
TTITLE7=VICTOR and LEO - O BAILAR DAS ESTRELAS
TTITLE8=VICTOR and LEO - BOIADEIRO ERRANTE
TTITLE9=VICTOR and LEO - SONHOS E ILUSÕES EM MIM
TTITLE10=VICTOR and LEO FEAT ALMIR SATER - VAGALUMES com Almir Sater
TTITLE11=VICTOR and LEO - ADEUS, MORENA
TTITLE12=VICTOR and LEO - TUDO BEM
TTITLE13=VICTOR and LEO - DEUS E EU NO SERTÃO
TTITLE14=VICTOR and LEO LEO FEAT LEONARDO - MINHA PEQUENA com Leonardo
TTITLE15=VICTOR and LEO - VIDE, VIDA MARVADA
EXTD=
EXTT0=
EXTT1=
EXTT2=
EXTT3=
EXTT4=
EXTT5=
EXTT6=
EXTT7=
EXTT8=
EXTT9=
EXTT10=
EXTT11=
EXTT12=
EXTT13=
EXTT14=
EXTT15=
PLAYORDER=
